<?xml version="1.0" standalone="no"?>
<!DOCTYPE svg PUBLIC "-//W3C//DTD SVG 20010904//EN"
 "http://www.w3.org/TR/2001/REC-SVG-20010904/DTD/svg10.dtd">
<svg version="1.0" xmlns="http://www.w3.org/2000/svg"
 width="264.000000pt" height="191.000000pt" viewBox="0 0 264.000000 191.000000"
 preserveAspectRatio="xMidYMid meet">

<g transform="translate(0.000000,191.000000) scale(0.100000,-0.100000)"
fill="#000000" stroke="none">
<path d="M0 955 l0 -955 1320 0 1320 0 0 441 -1 440 -31 -6 c-17 -4 -28 -3
-25 1 3 5 -1 14 -8 21 -11 10 -15 10 -18 0 -4 -9 -6 -9 -6 1 -1 6 -8 12 -17
12 -9 0 -12 -5 -8 -11 4 -7 1 -10 -7 -7 -8 3 -13 13 -13 22 2 17 -22 23 -28 7
-3 -9 -128 59 -128 69 0 3 23 19 51 35 28 17 55 36 61 43 13 15 11 143 -1 155
-5 5 -19 3 -31 -3 -26 -14 -70 -20 -70 -10 0 4 -18 14 -40 23 l-40 15 0 -156
c-1 -157 -8 -313 -16 -321 -2 -2 -4 16 -4 40 -1 39 -2 42 -14 26 -20 -26 -385
-229 -399 -221 -7 4 -9 3 -4 -1 8 -9 -131 -90 -141 -81 -3 3 0 6 6 6 18 0 14
27 -4 34 -24 9 -27 8 -21 -14 3 -11 1 -20 -3 -20 -5 0 -11 15 -13 33 -3 26 -4
24 -6 -13 -1 -33 -4 -41 -11 -30 -8 13 -10 13 -10 -2 0 -22 -15 -31 -39 -23
-14 4 -20 19 -26 60 -5 41 -10 53 -21 48 -8 -3 -14 -1 -14 3 1 5 60 44 133 87
73 42 152 89 176 103 l44 27 -7 -37 c-7 -34 -6 -36 19 -34 27 2 28 5 25 55 -1
24 5 36 24 48 14 10 26 22 26 28 0 7 -4 7 -12 -1 -7 -7 -27 -12 -45 -12 -25 0
-33 -4 -33 -17 0 -13 -54 -49 -180 -121 l-180 -103 -129 75 c-133 76 -189 102
-161 74 8 -7 31 -21 51 -31 19 -9 47 -28 62 -43 14 -14 30 -23 35 -20 5 3 10
-5 10 -19 l0 -24 -40 25 c-27 17 -46 23 -61 18 -22 -6 -22 -6 1 14 13 11 19
23 14 26 -6 3 -12 -1 -16 -9 -3 -9 -18 -15 -36 -15 -18 0 -29 -4 -25 -10 7
-11 -8 -14 -18 -4 -12 12 23 35 43 29 12 -4 20 -2 20 4 0 7 -18 10 -45 9 -31
-2 -44 -7 -40 -16 3 -8 -5 -6 -21 5 -22 14 -23 18 -10 25 17 10 22 28 7 28 -5
0 -16 -7 -25 -15 -18 -18 -28 -19 -24 -2 2 7 -1 12 -7 12 -5 0 -9 -3 -8 -7 2
-4 -4 -5 -12 -2 -8 4 -12 11 -8 17 4 6 0 8 -10 4 -9 -3 -19 -2 -21 2 -3 5 6 8
21 7 14 0 28 5 31 12 3 9 -3 10 -20 4 -34 -11 -51 -9 -81 11 -27 17 -28 51 -1
40 11 -4 14 5 14 38 0 24 5 51 10 59 6 10 10 11 10 3 0 -20 23 -15 43 7 22 26
37 26 37 0 0 -36 16 -21 47 44 19 40 25 62 17 59 -8 -3 -14 -9 -14 -14 0 -4
-7 -6 -15 -3 -8 4 -15 2 -15 -4 0 -6 6 -12 12 -15 7 -3 -3 -5 -22 -4 -20 0
-40 7 -47 16 -10 13 -12 13 -13 2 0 -8 -3 -12 -6 -8 -7 7 27 67 39 67 19 0 67
42 60 52 -4 8 0 9 12 4 11 -4 25 0 36 10 10 9 23 13 28 9 6 -3 11 -1 11 6 0
11 -16 9 -52 -6 -16 -6 -18 0 -18 56 0 70 8 111 20 104 4 -2 15 4 25 15 10 11
24 20 31 20 7 0 21 11 32 25 13 16 26 23 36 19 14 -5 16 8 16 120 0 105 -2
126 -15 126 -12 0 -15 16 -15 80 0 64 3 80 15 80 11 0 15 11 15 40 l0 40 -670
0 -670 0 0 -955z m1148 269 l-3 -39 -5 47 c-3 26 -1 43 3 39 5 -5 7 -26 5 -47z
m-305 -28 c9 -7 17 -16 17 -19 0 -12 -53 -17 -66 -6 -12 10 -12 14 3 25 22 17
24 17 46 0z m-312 -17 c21 -7 52 -26 69 -44 l32 -33 -58 -21 c-41 -16 -74 -21
-118 -19 -61 3 -61 3 -64 36 -3 26 3 39 28 62 35 33 53 36 111 19z m608 -13
c9 -10 8 -15 -4 -20 -10 -4 -15 1 -15 14 0 24 4 25 19 6z m-184 -145 c3 -5 1
-12 -4 -15 -12 -8 -41 3 -41 15 0 12 37 12 45 0z m-184 -36 c-1 -10 -20 -14
-34 -7 -4 2 -5 8 -1 13 7 13 35 8 35 -6z m-176 -117 c46 -29 81 -55 77 -59 -4
-4 -38 -23 -77 -42 -68 -35 -70 -35 -99 -19 -17 9 -37 23 -44 29 -9 9 -19 10
-30 4 -12 -6 -27 -2 -49 14 l-33 22 53 35 c87 58 102 67 109 67 4 1 46 -22 93
-51z m-8 36 c-3 -3 -12 -4 -19 -1 -8 3 -5 6 6 6 11 1 17 -2 13 -5z m1330 -96
c-3 -8 -6 -5 -6 6 -1 11 2 17 5 13 3 -3 4 -12 1 -19z m323 -45 c0 -10 -61 -45
-67 -40 -2 3 11 14 29 25 40 24 38 24 38 15z m-1293 -51 c1 -9 3 -57 4 -105
l1 -88 72 -41 c84 -50 84 -50 69 -55 -7 -2 -39 -22 -72 -43 -55 -36 -91 -43
-91 -19 0 11 -30 12 -31 2 0 -5 -2 -16 -4 -26 -2 -9 1 -15 6 -11 5 3 7 10 4
15 -4 5 -2 9 4 9 19 0 20 -16 1 -28 -12 -7 -21 -8 -25 -2 -3 6 -13 10 -22 10
-8 0 -26 9 -40 19 -20 16 -30 18 -51 10 -15 -6 -23 -7 -19 -3 4 4 2 13 -4 21
-13 15 -33 18 -24 3 11 -18 -11 -10 -30 10 -10 11 -24 20 -32 20 -7 0 -16 6
-19 14 -3 8 -13 12 -22 10 -9 -3 -3 6 13 20 17 14 24 26 16 26 -11 0 -11 3 -1
15 7 8 16 15 21 15 5 0 9 -7 9 -15 0 -19 5 -19 35 1 21 14 25 24 25 63 0 63
14 78 130 139 25 14 49 28 54 33 12 10 19 4 23 -19z m1323 -22 c0 -11 -2 -20
-4 -20 -2 0 -6 9 -9 20 -3 11 -1 20 4 20 5 0 9 -9 9 -20z m-140 6 c0 -2 -12
-11 -27 -20 l-28 -17 24 20 c23 21 31 25 31 17z m-849 -23 c13 -15 12 -15 -8
-4 -24 12 -29 21 -14 21 5 0 15 -7 22 -17z m154 -3 c3 -5 21 -17 40 -26 19 -9
35 -20 35 -25 0 -14 -9 -11 -37 11 -16 12 -35 18 -47 15 -12 -3 -15 -2 -8 1
10 5 10 9 1 20 -8 9 -8 14 -1 14 6 0 14 -4 17 -10z m-100 -10 c-3 -5 -12 -10
-18 -10 -7 0 -6 4 3 10 19 12 23 12 15 0z m979 -22 c9 -18 17 -60 18 -93 l3
-60 104 -60 c58 -33 106 -65 108 -70 3 -10 -262 -160 -284 -160 -6 0 -15 -4
-20 -9 -5 -5 -2 -6 6 -1 9 5 12 4 8 -2 -4 -6 -18 -8 -32 -5 -21 4 -23 7 -13
20 11 13 8 14 -24 10 -31 -3 -35 -2 -25 10 18 22 16 38 -5 38 -19 0 -19 -1 -1
-14 16 -12 15 -13 -12 -7 -23 5 -26 4 -15 -4 18 -13 1 -14 -19 -2 -11 7 -9 12
10 22 13 7 26 14 29 14 3 0 30 17 60 36 30 20 77 48 103 64 26 15 46 29 43 32
-2 2 -59 -27 -126 -66 -66 -39 -126 -71 -131 -71 -6 0 -38 15 -72 34 -55 31
-64 33 -76 19 -10 -11 -16 -12 -21 -3 -5 8 -9 7 -13 -5 -6 -14 -11 -13 -44 10
-21 14 -43 25 -50 25 -7 0 -13 4 -13 10 0 10 19 25 110 83 36 22 68 46 72 52
4 5 8 -7 8 -27 0 -53 20 -59 21 -6 2 34 3 37 6 13 7 -47 18 -49 17 -2 -1 38 2
43 42 69 24 15 44 32 44 37 0 5 8 11 18 15 21 7 79 42 111 67 32 26 38 24 55
-13z m-939 4 c-3 -3 -11 0 -18 7 -9 10 -8 11 6 5 10 -3 15 -9 12 -12z m679
-78 c7 -40 7 -41 -18 -37 -15 3 -26 1 -26 -6 0 -6 -4 -11 -10 -11 -14 0 -12
83 3 99 10 11 10 13 0 7 -7 -4 -13 -5 -13 -1 0 3 10 9 23 14 25 10 30 2 41
-65z m-74 42 c0 -2 -7 -7 -16 -10 -8 -3 -12 -2 -9 4 6 10 25 14 25 6z m-1304
-74 c-11 -10 -14 3 -8 33 l7 30 3 -28 c2 -16 1 -31 -2 -35z m-424 -56 c22 -16
13 -26 -22 -26 -33 0 -43 9 -29 27 14 16 29 16 51 -1z m788 -111 c0 -2 -10 -9
-22 -15 -22 -11 -22 -10 -4 4 21 17 26 19 26 11z m-240 -27 c0 -4 -4 -8 -9 -8
-6 0 -12 4 -15 8 -3 5 1 9 9 9 8 0 15 -4 15 -9z m1200 -43 c26 -15 22 -18 -20
-15 -25 2 -25 1 -5 -15 20 -16 20 -16 -2 -6 -18 9 -22 23 -14 49 2 5 17 0 41
-13z m525 -5 c-3 -5 -12 -10 -18 -10 -7 0 -6 4 3 10 19 12 23 12 15 0z m-462
-34 c16 -12 16 -14 2 -20 -9 -3 -13 -2 -10 4 3 6 -1 10 -9 10 -8 0 -18 5 -21
10 -9 15 17 12 38 -4z m417 4 c-8 -5 -19 -10 -25 -10 -5 0 -3 5 5 10 8 5 20
10 25 10 6 0 3 -5 -5 -10z m-452 -35 c-3 -3 -9 2 -12 12 -6 14 -5 15 5 6 7 -7
10 -15 7 -18z m-1684 9 c24 -9 19 -24 -8 -24 -28 0 -43 16 -24 23 7 3 14 6 15
6 1 1 8 -2 17 -5z m1737 -27 c-10 -9 -11 -8 -5 6 3 10 9 15 12 12 3 -3 0 -11
-7 -18z"/>
<path d="M445 1164 c-30 -30 -47 -64 -41 -79 10 -27 156 -15 190 16 15 13 -30
55 -73 68 -50 15 -56 14 -76 -5z m35 -34 c0 -5 14 -10 30 -10 17 0 30 -4 30
-10 0 -5 -20 -10 -45 -10 -38 0 -45 3 -45 20 0 11 7 20 15 20 8 0 15 -4 15
-10z"/>
<path d="M910 471 c0 -5 9 -7 20 -4 11 3 20 7 20 9 0 2 -9 4 -20 4 -11 0 -20
-4 -20 -9z"/>
<path d="M2060 394 c-30 -19 -62 -39 -70 -44 -12 -7 -12 -11 -3 -21 10 -10 16
-9 28 1 12 10 18 11 28 1 9 -10 8 -11 -5 -6 -26 10 -22 -10 6 -28 21 -14 26
-14 36 -2 7 8 18 15 24 14 7 0 6 -2 -2 -6 -6 -2 -9 -10 -6 -15 4 -7 2 -8 -4
-4 -7 4 -12 2 -12 -3 0 -16 16 -13 59 8 21 11 38 27 38 35 0 18 -13 21 -22 6
-13 -21 -25 3 -25 51 0 27 -3 49 -7 48 -5 0 -33 -16 -63 -35z"/>
<path d="M2243 391 c-40 -24 -61 -42 -60 -54 1 -9 6 -15 12 -13 5 2 9 8 8 14
-2 6 4 9 12 6 8 -4 15 -1 15 7 0 7 3 10 6 6 7 -7 99 43 105 57 10 22 -41 10
-98 -23z"/>
<path d="M1886 325 c4 -8 10 -15 15 -15 4 0 6 7 3 15 -4 8 -10 15 -15 15 -4 0
-6 -7 -3 -15z"/>
<path d="M2336 1414 c-24 -24 -19 -32 22 -37 l37 -4 -37 -1 c-21 -1 -38 -7
-38 -13 0 -16 90 -3 108 15 11 11 9 17 -14 35 -32 25 -57 27 -78 5z m44 -9 c3
0 14 -6 25 -14 17 -11 17 -12 2 -7 -10 3 -27 6 -38 6 -11 0 -19 7 -19 16 0 10
4 12 13 7 6 -4 14 -8 17 -8z"/>
<path d="M1305 1410 c-3 -5 -1 -10 4 -10 6 0 11 5 11 10 0 6 -2 10 -4 10 -3 0
-8 -4 -11 -10z"/>
<path d="M1565 1298 c-77 -45 -176 -102 -220 -128 l-80 -46 -3 -158 c-2 -144
-1 -158 14 -152 9 4 110 61 224 127 l207 121 7 60 c8 84 8 258 -1 258 -5 0
-71 -37 -148 -82z m88 -59 c6 -9 7 -25 3 -35 -8 -18 -9 -18 -17 4 -11 29 -40
28 -70 -4 -19 -20 -24 -37 -24 -74 0 -57 -11 -73 -24 -37 -31 80 90 213 132
146z m-173 -68 c0 -14 -71 -55 -92 -54 -10 1 -16 -2 -13 -8 4 -5 4 -9 1 -9 -3
0 -7 4 -10 9 -4 5 18 23 46 40 57 33 68 36 68 22z m-3 -65 c0 -7 -27 -28 -59
-45 -32 -18 -56 -37 -53 -42 4 -5 1 -9 -4 -9 -6 0 -9 10 -8 21 2 14 24 33 63
55 32 19 59 34 60 34 0 0 1 -6 1 -14z m-137 -15 c0 -6 -4 -13 -10 -16 -5 -3
-10 1 -10 9 0 9 5 16 10 16 6 0 10 -4 10 -9z m25 0 c3 -5 2 -12 -3 -15 -5 -3
-9 1 -9 9 0 17 3 19 12 6z m232 -42 c-38 -23 -70 -39 -72 -37 -5 5 116 77 130
77 6 1 -21 -18 -58 -40z m-117 -3 c0 -18 -67 -60 -92 -59 -10 1 -16 -2 -14 -6
3 -4 -1 -16 -8 -27 -13 -17 -14 -17 -12 6 1 19 15 34 61 62 33 20 61 37 63 37
1 1 2 -5 2 -13z m-144 -33 c-10 -10 -19 5 -10 18 6 11 8 11 12 0 2 -7 1 -15
-2 -18z m129 -39 c-24 -19 -111 -64 -122 -64 -8 0 128 79 137 79 3 0 -4 -7
-15 -15z m-125 -13 c0 -6 -4 -13 -10 -16 -5 -3 -10 1 -10 9 0 9 5 16 10 16 6
0 10 -4 10 -9z"/>
<path d="M1424 1144 c-18 -14 -18 -15 4 -4 12 6 22 13 22 15 0 8 -5 6 -26 -11z"/>
<path d="M1424 1014 c-18 -14 -18 -15 4 -4 12 6 22 13 22 15 0 8 -5 6 -26 -11z"/>
<path d="M1400 1355 c0 -11 5 -27 10 -35 8 -12 10 -12 10 5 0 11 -5 27 -10 35
-8 12 -10 12 -10 -5z"/>
<path d="M1485 1320 c4 -6 16 -8 27 -4 15 4 18 3 13 -6 -5 -9 -4 -11 4 -6 17
11 3 26 -25 26 -15 0 -23 -4 -19 -10z"/>
<path d="M1392 1264 c2 -10 -3 -19 -11 -22 -9 -3 -11 0 -6 8 5 9 4 11 -4 6 -7
-4 -10 -13 -8 -19 3 -11 37 -19 36 -9 -1 4 0 9 1 12 7 19 7 40 -1 40 -6 0 -9
-7 -7 -16z"/>
<path d="M1415 1240 c-3 -6 1 -7 9 -4 18 7 21 14 7 14 -6 0 -13 -4 -16 -10z"/>
<path d="M1295 1230 c-3 -5 3 -10 14 -10 10 0 21 -6 24 -12 2 -7 7 -10 11 -7
3 3 4 14 0 23 -7 18 -39 22 -49 6z"/>
<path d="M1259 1194 c-9 -19 -12 -34 -7 -34 5 0 6 -5 3 -10 -5 -8 -12 -7 -23
2 -13 11 -15 10 -9 -4 4 -11 2 -18 -6 -18 -8 0 -8 -3 1 -9 11 -7 11 -12 1 -28
-7 -13 -9 -28 -4 -39 4 -11 7 -27 6 -36 -1 -10 2 -18 7 -18 5 0 10 28 11 63 1
50 5 65 22 80 12 9 17 17 11 17 -6 0 -8 9 -5 21 4 14 9 17 16 10 6 -6 16 -11
22 -11 5 0 3 6 -6 13 -9 7 -18 17 -20 23 -2 6 -11 -4 -20 -22z"/>
<path d="M2505 1110 c-3 -5 -1 -10 4 -10 6 0 11 5 11 10 0 6 -2 10 -4 10 -3 0
-8 -4 -11 -10z"/>
<path d="M1692 1027 c-12 -6 -22 -14 -22 -19 0 -5 -3 -7 -8 -4 -11 6 -47 -22
-38 -31 4 -4 10 -3 14 2 4 6 21 17 37 25 40 19 53 24 37 13 -10 -7 -8 -14 8
-28 11 -10 23 -15 27 -11 4 4 1 11 -7 17 -11 7 -7 8 13 3 36 -8 34 0 -6 23
-25 15 -38 17 -55 10z"/>
<path d="M1900 1001 c0 -5 5 -13 10 -16 6 -3 10 -2 10 4 0 5 -4 13 -10 16 -5
3 -10 2 -10 -4z"/>
<path d="M2383 1003 c-17 -6 -17 -20 0 -26 8 -3 13 3 13 14 0 11 0 19 -1 18 0
0 -6 -3 -12 -6z"/>
<path d="M1672 985 c-30 -16 -50 -35 -36 -35 6 0 11 -7 11 -15 0 -12 -3 -12
-18 3 -9 9 -16 19 -15 22 0 3 -3 6 -9 7 -5 1 -9 -8 -8 -20 1 -15 0 -16 -3 -4
-3 9 -10 17 -16 17 -5 0 -8 -7 -5 -15 4 -8 1 -17 -5 -21 -7 -4 -8 -3 -4 4 11
18 -29 15 -44 -3 -7 -8 -18 -15 -26 -15 -7 0 -19 -6 -26 -12 -7 -7 -30 -22
-51 -32 -41 -21 -44 -28 -22 -50 9 -9 11 -17 5 -21 -5 -3 -10 -1 -10 4 0 6 -7
11 -16 11 -14 0 -15 -2 -3 -17 13 -17 12 -17 -4 -4 -17 13 -17 16 -3 26 26 20
7 24 -25 7 -35 -20 -36 -28 -6 -38 12 -4 39 -18 60 -31 21 -13 42 -21 48 -18
5 4 9 3 8 -2 -4 -22 4 -21 41 2 22 14 42 25 44 25 3 0 47 25 98 56 51 31 113
67 138 81 57 31 70 43 45 43 -19 1 -19 1 -2 11 9 6 15 15 12 20 -4 5 -19 0
-36 -12 -17 -12 -33 -19 -36 -15 -3 3 6 11 21 17 14 7 26 16 26 21 0 12 -13
10 -35 -6 -11 -7 -37 -22 -57 -33 -36 -20 -37 -20 -19 -40 18 -19 18 -20 0
-31 -15 -10 -21 -8 -33 10 -9 13 -21 18 -31 14 -10 -3 -14 -2 -10 5 4 6 20 7
37 4 24 -6 29 -4 22 6 -5 8 -9 23 -11 34 -1 11 1 14 3 8 6 -15 34 -18 34 -4 0
5 7 11 16 13 14 3 14 5 -2 19 -16 13 -23 14 -42 4z m38 -9 c0 -2 -7 -7 -16
-10 -8 -3 -12 -2 -9 4 6 10 25 14 25 6z m30 -41 c0 -2 -10 -9 -22 -15 -22 -11
-22 -10 -4 4 21 17 26 19 26 11z m45 -21 c-10 -7 -22 -11 -27 -8 -5 3 -1 12 9
19 10 7 22 11 27 8 5 -4 1 -12 -9 -19z m-226 -14 c4 0 12 5 18 11 7 7 12 6 17
-6 3 -9 2 -13 -4 -10 -6 3 -20 -1 -32 -9 -12 -9 -25 -16 -29 -16 -12 0 -19 29
-8 35 5 4 8 2 7 -3 -2 -6 2 -10 7 -9 6 0 9 10 8 21 -1 15 0 16 3 4 3 -10 9
-18 13 -18z m181 0 c0 -5 -5 -10 -11 -10 -5 0 -7 5 -4 10 3 6 8 10 11 10 2 0
4 -4 4 -10z m-247 -20 c-4 -4 -25 -17 -45 -27 -30 -16 -35 -23 -25 -33 10 -12
9 -12 -5 -1 -20 15 -15 31 8 31 8 0 12 5 9 10 -4 6 -3 10 2 9 19 -3 52 14 46
24 -4 6 -1 7 6 2 7 -4 9 -11 4 -15z m97 -4 c0 -2 -7 -7 -16 -10 -8 -3 -12 -2
-9 4 6 10 25 14 25 6z m37 -10 c-11 -8 -14 -17 -8 -20 5 -4 12 -2 16 4 3 5 11
10 18 10 6 0 1 -7 -12 -16 -19 -14 -25 -14 -32 -3 -13 20 -11 27 9 32 27 7 28
7 9 -7z m-82 -16 c-3 -5 -1 -10 6 -10 7 0 9 -3 6 -7 -4 -3 -1 -13 6 -22 10
-14 10 -14 -5 -3 -10 8 -19 9 -22 3 -3 -5 0 -12 6 -14 10 -4 10 -6 1 -6 -7 -1
-17 8 -23 19 -9 16 -8 18 5 14 8 -4 15 -1 15 5 0 6 -6 11 -12 11 -9 0 -8 4 2
10 19 12 23 12 15 0z m-56 -14 c10 -11 6 -17 -20 -30 -26 -13 -29 -13 -19 -1
9 11 10 15 1 15 -7 0 -9 5 -5 12 6 9 9 9 12 0 2 -7 11 -12 19 -12 13 0 13 3 3
15 -7 8 -10 15 -7 15 2 0 10 -6 16 -14z m101 10 c0 -3 -4 -8 -10 -11 -5 -3
-10 -1 -10 4 0 6 5 11 10 11 6 0 10 -2 10 -4z"/>
<path d="M2455 940 c4 -6 11 -8 16 -5 14 9 11 15 -7 15 -8 0 -12 -5 -9 -10z"/>
<path d="M2610 900 c0 -6 7 -10 15 -10 8 0 15 2 15 4 0 2 -7 6 -15 10 -8 3
-15 1 -15 -4z"/>
<path d="M1665 880 c4 -6 11 -8 16 -5 14 9 11 15 -7 15 -8 0 -12 -5 -9 -10z"/>
<path d="M1005 840 c3 -5 8 -10 11 -10 2 0 4 5 4 10 0 6 -5 10 -11 10 -5 0 -7
-4 -4 -10z"/>
<path d="M1613 793 c-24 -13 -43 -28 -43 -32 0 -4 11 -14 25 -21 23 -13 31
-11 80 15 l53 29 -29 18 c-36 22 -34 22 -86 -9z"/>
</g>
</svg>
